# xmcd
#
# Track frame offsets:
#	150
#	14657
#	30332
#	44347
#	59180
#	82095
#	103112
#	119972
#	135012
#	154457
#	174970
#	190240
#	204620
#	220902
#	238040
#
# Disc length: 3350 seconds
#
# Revision: 0
# Processed by: cddbd v1.5.2PL0 Copyright (c) Steve Scherf et al.
# Submitted via: EasyCDDAExtractor 16.0.6.1
#
DISCID=dd0d140f
DTITLE=Ana Carolina - Ana Rita Joana Iracema e Carolina
DYEAR=2001
DGENRE=MPB
TTITLE0=O rio
TTITLE1=Confesso
TTITLE2=Ela é bamba
TTITLE3=Implicante
TTITLE4=Quem de nós dois
TTITLE5=Pra terminar
TTITLE6=Que será
TTITLE7=Joana
TTITLE8=Violão e voz
TTITLE9=Vê se me esquece
TTITLE10=A câmera que filma os dias
TTITLE11=Dadivosa
TTITLE12=Que se danem os nós
TTITLE13=Eu nunca te amei idiota
TTITLE14=Me sento na rua
EXTD=
EXTT0=
EXTT1=
EXTT2=
EXTT3=
EXTT4=
EXTT5=
EXTT6=
EXTT7=
EXTT8=
EXTT9=
EXTT10=
EXTT11=
EXTT12=
EXTT13=
EXTT14=
PLAYORDER=
